<svg width="40" height="40" viewBox="0 0 40 40" fill="none" xmlns="http://www.w3.org/2000/svg">
<path d="M29.2104 23.89C28.5742 25.3945 27.5792 26.7202 26.3123 27.7513C25.0454 28.7824 23.5452 29.4874 21.9428 29.8048C20.3405 30.1221 18.6848 30.0421 17.1205 29.5718C15.5563 29.1014 14.131 28.2551 12.9694 27.1066C11.8078 25.9582 10.9452 24.5427 10.457 22.9839C9.96886 21.4251 9.86996 19.7705 10.169 18.1646C10.468 16.5588 11.1559 15.0506 12.1724 13.772C13.189 12.4934 14.5033 11.4833 16.0004 10.83" stroke="#FFEAA7" stroke-width="2" stroke-linecap="round" stroke-linejoin="round"/>
<path d="M30.0004 20C30.0004 18.6868 29.7417 17.3864 29.2392 16.1732C28.7366 14.9599 28 13.8575 27.0714 12.9289C26.1428 12.0003 25.0405 11.2638 23.8272 10.7612C22.6139 10.2587 21.3136 10 20.0004 10V20H30.0004Z" stroke="#FFEAA7" stroke-width="2" stroke-linecap="round" stroke-linejoin="round"/>
</svg>
