<svg width="40" height="40" viewBox="0 0 40 40" fill="none" xmlns="http://www.w3.org/2000/svg">
<path d="M15 30H12C11.4696 30 10.9609 29.7893 10.5858 29.4142C10.2107 29.0391 10 28.5304 10 28V21C10 20.4696 10.2107 19.9609 10.5858 19.5858C10.9609 19.2107 11.4696 19 12 19H15M22 17V13C22 12.2044 21.6839 11.4413 21.1213 10.8787C20.5587 10.3161 19.7956 10 19 10L15 19V30H26.28C26.7623 30.0055 27.2304 29.8364 27.5979 29.524C27.9654 29.2116 28.2077 28.7769 28.28 28.3L29.66 19.3C29.7035 19.0134 29.6842 18.7207 29.6033 18.4423C29.5225 18.1638 29.3821 17.9063 29.1919 17.6875C29.0016 17.4687 28.7661 17.2939 28.5016 17.1752C28.2371 17.0565 27.9499 16.9967 27.66 17H22Z" stroke="#FFEAA7" stroke-width="2" stroke-linecap="round" stroke-linejoin="round"/>
</svg>
